	<svg xmlns="http://www.w3.org/2000/svg" viewBox="0 0 119.616 95.061">
							<g id="Сгруппировать_5" data-name="Сгруппировать 5" transform="translate(0)">
								<path id="Контур_4" data-name="Контур 4"
									d="M-506.057,189.727a2.275,2.275,0,0,1,.715-1.967l1.091,1.353c.2.236.389.431.593.659.12.136.133.189.267.329s.209.2.33.325l.565.627c.392.392,1.692,1.637,1.862,1.892-.3.07-.637.257-.965.346a3.153,3.153,0,0,1-3.649-.976,4.666,4.666,0,0,1-.809-2.588Zm11.085-5.841a1.848,1.848,0,0,1,.563-1.583,1.86,1.86,0,0,1,3.132,1.463,1.871,1.871,0,0,1-1.8,1.781,1.878,1.878,0,0,1-1.9-1.662Zm31.051-6.2,1.006-2.689a56.074,56.074,0,0,0,1.642-5.868l.63-3.125c.428.287.862.542,1.27.875a8.582,8.582,0,0,1,2.125,2.285,3.771,3.771,0,0,1,.181,3.574,5.349,5.349,0,0,1-.31.525c-1.089,1.706-3.538,3.162-5.294,3.944a7.423,7.423,0,0,1-1.251.478Zm-11.324-9.834a1.92,1.92,0,0,1,1.848-1.907,1.877,1.877,0,1,1,0,3.755,1.921,1.921,0,0,1-1.848-1.848Zm-21.992-8.4a1.865,1.865,0,0,1,3.11-1.441,1.88,1.88,0,0,1-1.306,3.256,1.831,1.831,0,0,1-1.8-1.816Zm-14.542-11.026h-3.755c0,.426-.051.669-.062,1.011s.009.722,0,1.077-.063.578-.062,1.011l.3,8.763c.037.678.181,1.37.181,2.025A18.5,18.5,0,0,0-519,165.1a6.567,6.567,0,0,0-.508.445l-.857.991a10.03,10.03,0,0,0-.778,1.129c-1.48,2.453-.955,4.647.667,6.806.159.212.321.394.477.6.171.221.331.342.523.55l.536.536a17.765,17.765,0,0,0,2.363,1.928,31.091,31.091,0,0,0,7.108,3.679c.3.109.359.311.5.577l.827,1.381c.213.318.068.42-.045.772-.172.536-.342,1.14-.473,1.673-.634,2.577-1.322,7.061,1.437,8.732,2.8,1.7,6.34,1.416,9.411.627a22.2,22.2,0,0,0,2.8-.957,29.669,29.669,0,0,0,3.369-1.638l1.212-.636a17.1,17.1,0,0,0,2.741-1.67l1.3,1.022a23.6,23.6,0,0,0,4.419,2.614,2.269,2.269,0,0,1-.588.485l-1.251.895c-1.17.869-2.439,1.627-3.656,2.429-.351.231-.646-.16-.977-.377-.241-.158-.416-.256-.656-.416l-3.3-2.241a8.34,8.34,0,0,0-.945.366c-.667.266-2.217.986-2.81,1.124.049.183.052.135.187.23,2.208,1.564,3.744,2.495,6.023,3.87a21.155,21.155,0,0,0,2.253,1.2v.417a20.563,20.563,0,0,0,2.67-1.442c.883-.53,1.78-1.026,2.634-1.6.274-.184.56-.353.834-.536,1.246-.832,2.42-1.754,3.624-2.637.18-.132.3-.1.535-.036,2.2.588,5.532,1.236,7.855.264a4.872,4.872,0,0,0,2.183-1.751c1.877-2.835,1.75-5.874.542-8.971-.084-.216-.147-.383-.239-.6-.405-.938-.324-.416.657-2.169.122-.219.209-.351.32-.574.347-.7.228-.48.933-.795l5.758-2.825a16.309,16.309,0,0,0,3.027-2.1l.859-.869a7.337,7.337,0,0,0,1.431-7.587,8.493,8.493,0,0,0-2.581-3.32,15.012,15.012,0,0,0-1.717-1.263,34.361,34.361,0,0,0-8.312-3.488,81.994,81.994,0,0,0-22.5-2.767l-2.5.059c-.377,0-.532.06-.834.06a2.9,2.9,0,0,0-1.211-1.054,3.56,3.56,0,0,0-4.725,1.376,3.5,3.5,0,0,0,.038,3.609,3.469,3.469,0,0,0,1.141,1.184,3.607,3.607,0,0,0,4.111-.219,3.392,3.392,0,0,0,1.182-1.738l2.981-.06c.418,0,.6.058.951.063.671.008,1.363-.024,2.031,0l1.963.123c1.172.034,2.743.115,3.842.27.622.088,1.26.122,1.833.193.632.079,1.276.148,1.855.231l5.172.907a41.48,41.48,0,0,1,7.147,2.092,6.617,6.617,0,0,0,.775.3,19.452,19.452,0,0,0-.392,2.111c-.149.74-.287,1.384-.466,2.1-.175.7-.327,1.324-.52,1.984-.38,1.3-.809,2.513-1.267,3.8a38.257,38.257,0,0,1-5.47,9.788c-.367.489-.736.966-1.137,1.426s-.743.924-1.163,1.34c-.846.839-1.621,1.824-2.537,2.589a3.622,3.622,0,0,0-.326.27c-.245.243-.9.746-.967,1a17.313,17.313,0,0,1,1.9.723,10.79,10.79,0,0,0,2.094.588c.089,0,2.031-2.143,2.339-2.489.107-.121.126-.17.239-.3l.973-1.172a2.166,2.166,0,0,1,.5-.571c.023.273.178.656.231.961a3.869,3.869,0,0,1-.867,3.708c-1.965,1.725-6.234.576-8.279-.283a18.645,18.645,0,0,1-3.916-2.163c-.21-.159-.385-.257-.6-.417-.582-.438-1.111-.927-1.711-1.329a9.834,9.834,0,0,1,.94-.788l2.563-2.8a53.88,53.88,0,0,0,3.267-4.66c.836-1.276,1.55-2.619,2.338-3.921.115-.191.218-.367.328-.565a43.375,43.375,0,0,0,2.127-4.131,3.341,3.341,0,0,0,2.34-1,3.576,3.576,0,0,0,.03-5.066,3.566,3.566,0,0,0-6.064,2.31c0,2.027.8,2.3,1.252,2.98-.9,1.7-1.7,3.469-2.693,5.115-.339.56-.645,1.079-.991,1.632a28.693,28.693,0,0,1-3.095,4.057l-.628.683c-.507.5-1.233,1.417-1.848,2.026l-1.578,1.7a31.7,31.7,0,0,1-2.867,2.377c-.76.558-1.578,1.055-2.39,1.544a29.1,29.1,0,0,1-3.5,1.742c-.323.139-.6.252-.95.369-.385.131-.563-.178-1.079-.638-.146-.13-.208-.151-.357-.3l-1.042-.925c-.375-.33-2.293-2.222-2.617-2.628l-.612-.7c-.12-.154-.2-.2-.315-.341-.216-.256-.377-.465-.6-.713a33.534,33.534,0,0,1-3.507-4.956l-1.156-2.122c-.085-.163-.164-.255-.239-.416s-.11-.282-.2-.458c-.305-.61-.555-1.149-.832-1.79-.536-1.243-.974-2.556-1.406-3.839-.226-.674-.4-1.345-.6-2.026-.406-1.368-.637-2.9-.961-4.284a14.916,14.916,0,0,0-2.742,1.311c.129.27.5,2.281.62,2.777.241.961.454,1.8.73,2.727a38.8,38.8,0,0,0,1.809,5.045,5.9,5.9,0,0,1-1.192-.477c-.369-.188-.765-.344-1.133-.536l-2.145-1.252c-.346-.231-.636-.43-.98-.689a7.75,7.75,0,0,1-.883-.786c-1.942-1.919-.927-4.427.569-6.2l.732-.758a15.362,15.362,0,0,1,3.2-1.922,39.543,39.543,0,0,1,4.235-1.606l3.9-1.167a4.179,4.179,0,0,0,.609-.166,22.028,22.028,0,0,0,.34,3.117,29.893,29.893,0,0,0,.566,2.951,24.685,24.685,0,0,0,1.777,5.2,34.953,34.953,0,0,0,2.241,3.838c.141.21.213.327.347.547a5.855,5.855,0,0,0,.342.493c.625.841,1.174,1.76,1.83,2.58l.783,1c-.053.227-.094.207-.187.409-.058.126-.116.292-.164.432a3.574,3.574,0,0,0,3.212,4.642,3.612,3.612,0,0,0,2.727-1.087,3.467,3.467,0,0,0,1.028-2.429,3.564,3.564,0,0,0-3.338-3.576l-1.073.06-1.277-1.7a51.954,51.954,0,0,1-3.271-5.073l-.8-1.469a20.281,20.281,0,0,1-1.962-5.667,15.912,15.912,0,0,1-.134-4.554c.117-.973.617-2.053-.142-2.859-.971-1.031-2.974-.219-4.063.144-1.505.5-2.982.951-4.456,1.5-.725.272-1.553.446-2.256.783-.016-.733-.23-2.089-.237-2.982l-.059-1.252c0-.307-.048-.328-.062-.593-.094-1.748,0-3.362,0-5.066a3.309,3.309,0,0,0,.417.06,48.793,48.793,0,0,0,9.153-.621,30.233,30.233,0,0,0,3.026-.669l2.817-.878c.481-.159.914-.335,1.342-.506a24.906,24.906,0,0,0,3.139-1.45c.216-.132.4-.2.627-.327.794-.444,1.576-.9,2.305-1.39l.537-.357a9.429,9.429,0,0,0,1.609-1.192c.36.241.683.536,1.06.787s.705.5,1.1.751.733.465,1.14.708l4.929,2.461a35.305,35.305,0,0,0,7.185,2.053,48.207,48.207,0,0,0,9.2.63,3.3,3.3,0,0,0,.417-.06l-.058,5.843c-.017.563-.121,1.251-.121,1.846.242.128.456.279.7.428l1.408.857a2.193,2.193,0,0,0,.749.383c0-.805.113-1.749.176-2.506.025-.3-.022-.641.012-.942a15.646,15.646,0,0,0,.049-1.739c0-.381.059-.486.064-.83.016-1.315-.064-2.567-.062-3.876,0-.564-.066-.89-.059-1.431.013-.973-.031-.6-.835-.6h-2.324a42.481,42.481,0,0,1-12.613-1.93c-.547-.184-1.029-.342-1.565-.521-.969-.324-2.01-.778-2.927-1.186l-2.068-1.032c-.258-.144-.443-.22-.7-.373-.236-.141-.414-.223-.649-.364l-1.948-1.211a21.763,21.763,0,0,1-2.13-1.505c-.121-.15-.075-.218-.075-.461-.21.056-2.119,1.452-2.372,1.621-.833.555-1.651,1.033-2.518,1.535-.217.126-.443.234-.656.358a39.585,39.585,0,0,1-7.949,3.136,32.339,32.339,0,0,1-3.3.757A43.385,43.385,0,0,1-511.779,148.425Z"
									transform="translate(546.346 -140.26)" fill="#fff" fill-rule="evenodd" />
								<path id="Контур_5" data-name="Контур 5"
									d="M-518.94,467.741h3.934V455.285c.151.111,1.7,2.7,1.926,3.081l5.238,8.53a4.517,4.517,0,0,1,.465.846h5.185V450.1h-3.934v12.218c-.206-.151-4.373-7.059-4.711-7.626-.309-.516-.643-1.026-.954-1.549l-1.424-2.331c-.151-.253-.355-.712-.54-.712h-5.185Z"
									transform="translate(544.031 -373.157)" fill="#fff" fill-rule="evenodd" />
								<path id="Контур_6" data-name="Контур 6"
									d="M-615.927,457.632a7.024,7.024,0,0,1,.41-2.332,5.006,5.006,0,0,1,3.738-3.234,5.732,5.732,0,0,1,5.2,1.348,6.28,6.28,0,0,1,.058,8.257,5.271,5.271,0,0,1-4.038,1.564,5.352,5.352,0,0,1-3.5-1.267,3.7,3.7,0,0,1-.383-.332,6,6,0,0,1-1.48-4Zm-4.053-.238a10.022,10.022,0,0,0,.794,4.212,8.2,8.2,0,0,0,1.9,2.747,2.591,2.591,0,0,0,.293.243,8.755,8.755,0,0,0,4.376,2.06,11.144,11.144,0,0,0,3.775.089,9.509,9.509,0,0,0,4.407-1.732,8.52,8.52,0,0,0,3.167-4.76,10.645,10.645,0,0,0-.231-6.087,8.237,8.237,0,0,0-1.216-2.3c-.132-.175-.246-.351-.386-.509a8.643,8.643,0,0,0-3.052-2.192c-3.3-1.445-8.12-1.134-10.864,1.417l-.893.895A9.335,9.335,0,0,0-619.98,457.394Z"
									transform="translate(619.98 -371.809)" fill="#fff" fill-rule="evenodd" />
								<path id="Контур_7" data-name="Контур 7"
									d="M-423.18,467.742h12.456v-3.576h-8.523V460.59h7.629v-3.636h-7.629v-3.218h8.105V450.1H-423.18Z"
									transform="translate(472.052 -373.158)" fill="#fff" fill-rule="evenodd" />
								<path id="Контур_8" data-name="Контур 8"
									d="M-275.1,467.742h12.456v-3.576h-8.523V460.59h7.629v-3.636h-7.629v-3.218h8.106V450.1H-275.1Z"
									transform="translate(360.744 -373.158)" fill="#fff" fill-rule="evenodd" />
								<path id="Контур_9" data-name="Контур 9"
									d="M-343.319,461.426a1.583,1.583,0,0,1-.784,1.361,4.145,4.145,0,0,1-5.235-1.182,4.905,4.905,0,0,0-.7.731c-.276.274-.443.5-.716.773l-1.011,1.134a2.824,2.824,0,0,0-.374.4,7.327,7.327,0,0,0,2.486,1.627,9.244,9.244,0,0,0,3.044.638h.777a7.75,7.75,0,0,0,4.793-1.773,5.86,5.86,0,0,0,1.344-2.113,6.763,6.763,0,0,0,.184-3.081c-.651-3.7-5.133-3.549-7.277-4.881a1.528,1.528,0,0,1,.19-2.7,4,4,0,0,1,4,.3c.211.15.324.337.535.478a17.31,17.31,0,0,1,1.294-1.448l1.329-1.472a6.534,6.534,0,0,0-2.86-1.55,9.566,9.566,0,0,0-5.662.24,5.917,5.917,0,0,0-1.716,1.025,4.946,4.946,0,0,0-1.616,2.318,4.693,4.693,0,0,0,.722,4.688c1.238,1.4,3.07,1.811,4.866,2.405C-344.761,459.663-343.319,460.19-343.319,461.426Z"
									transform="translate(418.653 -371.848)" fill="#fff" fill-rule="evenodd" />
								<path id="Контур_10" data-name="Контур 10"
									d="M-202.38,457.377a10.053,10.053,0,0,0,.484,3.39c.063.188.127.419.213.622a8.973,8.973,0,0,0,1.732,2.679,8.965,8.965,0,0,0,4.539,2.494,10.1,10.1,0,0,0,1.554.234c.349.008.489.042.764.058h.293a13.52,13.52,0,0,0,2.1-.3,7.275,7.275,0,0,0,3.412-1.833,6.611,6.611,0,0,0,.819-.968l-1.643-1.217-.817-.613c-.275-.206-.625-.532-.877-.554-.116.435-.95,1.058-1.336,1.286a4.621,4.621,0,0,1-4.386.025c-3.018-1.5-3.743-6.349-1.413-9.1a4.878,4.878,0,0,1,6.369-.861c.24.189.521.358.587.6a15.6,15.6,0,0,0,2.317-1.8l.366-.29c.161-.127.22-.246.417-.3a6.721,6.721,0,0,0-4.306-2.489,10.577,10.577,0,0,0-5.835.633A8.724,8.724,0,0,0-202.38,457.377Z"
									transform="translate(306.083 -371.793)" fill="#fff" fill-rule="evenodd" />
							</g>
						</svg>