<svg xmlns="http://www.w3.org/2000/svg" width="906.936" height="821.17" viewBox="0 0 906.936 821.17">
  <path id="Контур_2632" data-name="Контур 2632" d="M-310.544,795.618c0-11.561,2.511-21.391,9.476-26.057l14.451,17.924c2.652,3.132,5.157,5.7,7.848,8.731,1.594,1.8,1.763,2.5,3.544,4.353,1.6,1.665,2.772,2.645,4.375,4.31l7.483,8.307c5.2,5.189,22.415,21.691,24.675,25.07-4,.931-8.441,3.4-12.787,4.583-17.848,4.846-37.035,3.448-48.345-12.933a61.823,61.823,0,0,1-10.72-34.288Zm146.864-77.38c0-8.084.458-14.473,7.459-20.967,14.215-13.189,41.5-6.408,41.5,19.388,0,12.949-11.475,22.921-23.789,23.6-11.571.635-25.166-9.912-25.166-22.019ZM247.7,636.121,261.026,600.5a742.746,742.746,0,0,0,21.747-77.741l8.349-41.395c5.672,3.8,11.424,7.179,16.832,11.594,10.754,8.78,20.983,17.937,28.147,30.277,8.627,14.85,9.707,31.711,2.4,47.352a70.877,70.877,0,0,1-4.1,6.955c-14.427,22.6-46.876,41.895-70.133,52.254-3.108,1.385-13.406,6.063-16.57,6.327ZM97.675,505.839c0-13.749,11.58-25.267,24.478-25.267,33.446,0,33.446,49.744,0,49.744-12.828,0-24.478-11.689-24.478-24.477ZM-193.684,394.507c0-21.493,23.5-33.343,41.2-19.089,15.269,12.3,7.913,44.1-17.3,43.141-13.205-.5-23.891-10.712-23.891-24.053ZM-386.343,248.434h-49.744c0,5.648-.68,8.87-.817,13.4-.139,4.678.116,9.567.059,14.268-.059,4.8-.844,7.656-.825,13.391l3.927,116.1c.5,8.984,2.394,18.143,2.394,26.823-18.32,9.692-35.595,22.908-50.722,36.923-2.519,2.333-4.247,3.188-6.735,5.9l-11.346,13.131a132.966,132.966,0,0,0-10.314,14.953c-19.613,32.5-12.653,61.561,8.844,90.171,2.109,2.806,4.249,5.218,6.313,7.9,2.258,2.935,4.381,4.537,6.923,7.291l7.106,7.107c11.806,10.886,17.293,15.855,31.3,25.547a411.871,411.871,0,0,0,94.172,48.74c4,1.448,4.76,4.126,6.568,7.646L-338.275,716c2.82,4.218.9,5.56-.6,10.222-2.28,7.106-4.524,15.1-6.262,22.165-8.394,34.139-17.515,93.539,19.04,115.684,37.109,22.48,83.99,18.757,124.685,8.3a294.339,294.339,0,0,0,37.065-12.68A393.025,393.025,0,0,0-119.717,838l16.056-8.422c10.1-5.231,27.849-14.766,36.311-22.119L-50.09,821c10.34,7.768,47.117,31.965,58.541,34.627-1.915,2.862-4.981,4.309-7.784,6.428l-16.572,11.854c-15.5,11.511-32.317,21.55-48.44,32.182-4.647,3.063-8.558-2.122-12.943-4.994-3.2-2.089-5.518-3.4-8.7-5.518l-43.744-29.689c-3.494.812-8.912,3.412-12.521,4.853-8.834,3.524-29.373,13.057-37.224,14.887.648,2.431.689,1.786,2.478,3.053,29.251,20.714,49.606,33.051,79.792,51.277,4.991,3.014,25.373,14.745,29.853,15.943v5.526c6.679-1.783,28.4-14.9,35.38-19.1,11.693-7.026,23.586-13.587,34.893-21.167,3.628-2.431,7.419-4.678,11.055-7.106C30.486,903.028,46.042,890.819,62,879.127c2.388-1.75,4.022-1.3,7.092-.484,29.169,7.791,73.284,16.38,104.062,3.5,11.541-4.83,22.053-12.818,28.919-23.191,24.865-37.565,23.184-77.813,7.174-118.845-1.114-2.859-1.943-5.073-3.164-7.89-5.37-12.422-4.29-5.507,8.7-28.741,1.621-2.9,2.772-4.652,4.241-7.6,4.6-9.251,3.019-6.363,12.366-10.531l76.277-37.423c13.63-8.172,28.662-16.661,40.1-27.8L359.147,608.6c23.421-28.992,33.6-64.1,18.956-100.522-7.02-17.454-20.026-32.555-34.189-43.981-7.426-5.994-14.488-11.784-22.748-16.733-34.524-20.664-70.817-34.916-110.124-46.214C115.459,373.688,13.063,364.5-87.09,364.5l-33.172.78c-4.987-.029-7.049.8-11.045.8-3.006-5.685-9.97-10.913-16.045-13.959-23.194-11.65-49.455-3.52-62.595,18.226-9.024,14.943-8.155,33.537.5,47.816a45.974,45.974,0,0,0,15.112,15.683c16.353,10.765,39.728,9.077,54.468-2.9,6.54-5.313,13.479-13.63,15.665-23.023l39.487-.8c5.537-.03,7.882.77,12.595.829,8.889.109,18.061-.323,26.905-.059l26,1.632c15.524.444,36.336,1.523,50.9,3.583,8.238,1.167,16.694,1.618,24.287,2.559,8.365,1.043,16.909,1.957,24.573,3.063l68.522,12.011c32.014,6.465,64.478,15.614,94.678,27.711,2.889,1.155,7.31,3.26,10.264,3.948-1.891,3.942-3.951,21.787-5.2,27.965-1.975,9.8-3.806,18.335-6.172,27.781-2.315,9.241-4.332,17.535-6.882,26.28-5.032,17.243-10.714,33.291-16.785,50.329C202.6,640.75,175.5,685.793,146.514,724.439c-4.855,6.478-9.749,12.792-15.062,18.889-5.157,5.915-9.843,12.238-15.406,17.755-11.208,11.114-21.473,24.162-33.605,34.3a47.717,47.717,0,0,0-4.323,3.573C74.867,802.171,66.2,808.84,65.3,812.2c8.747,2.04,16.722,6.525,25.169,9.577,5.033,1.819,22,7.794,27.734,7.794,1.174,0,26.911-28.393,30.984-32.972,1.425-1.606,1.668-2.247,3.172-3.934l12.893-15.533c2.434-3.1,3.507-5.471,6.643-7.57.3,3.619,2.361,8.693,3.066,12.726,3.045,17.4,2.415,36.913-11.493,49.122-26.029,22.855-82.588,7.63-109.679-3.751-17.7-7.436-36.555-17.1-51.879-28.659-2.788-2.106-5.1-3.408-7.9-5.521-7.707-5.806-14.715-12.278-22.668-17.6,2.642-3.606,9.078-7.106,12.455-10.446l33.95-37.11c15.9-19.437,29.387-40.528,43.283-61.733C72.107,649.685,81.561,631.9,92,614.648c1.53-2.531,2.888-4.856,4.349-7.491,4.751-8.56,26.414-47.181,28.174-54.732,13.288,0,24.2-6.382,31-13.222,18.4-18.516,19.158-48.359.394-67.122-30.136-30.136-80.343-6.61-80.343,30.6,0,26.86,10.57,30.5,16.582,39.479-11.9,22.494-22.481,45.957-35.678,67.76-4.487,7.416-8.541,14.292-13.123,21.619-9.977,15.953-27.675,40.029-41,53.751l-8.314,9.054c-6.717,6.623-16.333,18.769-24.477,26.843l-20.9,22.529c-8.952,9-28.1,24.237-37.985,31.5-10.068,7.395-20.911,13.972-31.658,20.453-14.718,8.873-30.574,16.239-46.412,23.073-4.278,1.845-7.994,3.332-12.587,4.888-5.1,1.731-7.459-2.362-14.295-8.452-1.927-1.717-2.757-2-4.729-3.958l-13.808-12.249c-4.971-4.375-30.372-29.431-34.668-34.814l-8.111-9.262c-1.585-2.046-2.609-2.651-4.17-4.514-2.856-3.395-4.994-6.156-7.927-9.445-17.392-19.506-33.054-43.362-46.462-65.657l-15.321-28.11c-1.119-2.155-2.17-3.372-3.168-5.517-.98-2.111-1.457-3.738-2.62-6.063-4.045-8.079-7.355-15.219-11.024-23.72C-353.4,595.4-359.2,578-364.919,561c-3-8.922-5.235-17.822-7.907-26.836-5.378-18.128-8.445-38.371-12.728-56.755-11.9,5.711-20.508,6.784-36.321,17.371,1.714,3.573,6.565,30.218,8.214,36.795,3.189,12.735,6.021,23.895,9.665,36.13,4.68,15.713,16.137,52.03,23.97,66.832-3.24-.271-12.99-4.889-15.792-6.317-4.9-2.494-10.143-4.561-15.011-7.1l-28.417-16.591c-4.578-3.063-8.422-5.691-12.978-9.13A102.549,102.549,0,0,1-463.923,585c-25.726-25.424-12.278-58.654,7.54-82.085l9.693-10.044c13.825-10.768,26.159-17.911,42.448-25.461,18.513-8.583,36.71-14.817,56.1-21.282L-296.5,430.66c2.113-.543,6.121-1.266,8.064-2.2,0,13.88,2.552,27.735,4.5,41.3a396.793,396.793,0,0,0,7.493,39.091c6.305,25.372,12.912,47.546,23.538,68.845a463.941,463.941,0,0,0,29.685,50.85c1.866,2.781,2.827,4.333,4.6,7.248a77.589,77.589,0,0,0,4.526,6.527c8.275,11.143,15.548,23.323,24.247,34.183l10.373,13.314c-.7,3-1.24,2.744-2.477,5.42-.772,1.674-1.54,3.862-2.175,5.72-9.755,28.58,12.742,61.5,42.552,61.5,14.891,0,26.188-4.53,36.128-14.408A45.94,45.94,0,0,0-91.827,715.87c0-24.2-19.849-47.375-44.218-47.375l-14.211.79-16.917-22.562a688.074,688.074,0,0,1-43.336-67.208l-10.549-19.457c-12.425-24.855-21.062-47.819-25.986-75.08a210.8,210.8,0,0,1-1.773-60.331c1.545-12.89,8.172-27.195-1.881-37.874-12.862-13.66-39.405-2.9-53.829,1.909-19.941,6.659-39.507,12.6-59.033,19.923-9.61,3.606-20.577,5.909-29.889,10.38-.219-9.708-3.046-27.672-3.132-39.506l-.783-16.587c-.049-4.073-.637-4.347-.826-7.861-1.25-23.151,0-44.539,0-67.118,2.472.2,2.807.79,5.527.79,43.6,0,79.307-.688,121.264-8.229,13.433-2.414,27.671-5.234,40.091-8.863l37.324-11.629c6.373-2.109,12.107-4.432,17.779-6.7,11.775-4.7,30.682-12.577,41.585-19.214,2.863-1.747,5.3-2.655,8.3-4.332,10.521-5.886,20.881-11.956,30.539-18.414,2.373-1.586,4.731-3.161,7.11-4.734,5.222-3.461,18.212-11.561,21.316-15.8,4.775,3.194,9.048,7.1,14.048,10.429,5.1,3.4,9.34,6.62,14.53,9.949s9.714,6.162,15.1,9.376l65.306,32.6c27.909,12.351,65.1,21.51,95.188,27.2,40.664,7.688,79.185,8.353,121.928,8.353,2.724,0,3.057-.586,5.528-.79l-.764,77.406c-.224,7.465-1.606,16.578-1.606,24.451,3.212,1.7,6.041,3.694,9.327,5.675L289.886,406.8c2.746,1.652,6.722,4.813,9.922,5.079,0-10.666,1.5-23.171,2.327-33.205.332-3.994-.29-8.5.157-12.475.784-6.965.692-14.907.656-23.034-.02-5.053.782-6.442.842-11,.214-17.427-.842-34-.822-51.356.01-7.475-.879-11.795-.786-18.957.17-12.886-.4-7.889-11.058-7.889H260.329c-53.31,0-117.648-8.935-167.1-25.563-7.248-2.438-13.633-4.531-20.733-6.9-12.842-4.291-26.623-10.3-38.772-15.71L6.336,192.12C2.92,190.208.46,189.2-2.936,187.178c-3.126-1.865-5.484-2.954-8.6-4.82l-25.807-16.042c-3.858-2.573-25.346-16.374-28.222-19.943-1.6-1.994-.991-2.892-.991-6.113-2.78.74-28.071,19.236-31.426,21.477-11.038,7.357-21.879,13.68-33.358,20.335-2.874,1.668-5.869,3.1-8.685,4.737-28.458,16.539-74.461,32.851-105.311,41.549a428.029,428.029,0,0,1-43.667,10.028C-318.337,243.423-351.7,248.434-386.343,248.434Z" transform="translate(522.02 -140.26)" fill="#f6f6f6" fill-rule="evenodd"/>
</svg>
