<svg xmlns="http://www.w3.org/2000/svg" width="363" height="328.672" viewBox="0 0 363 328.672">
  <path id="Контур_2633" data-name="Контур 2633" d="M-437.377,402.566c0-4.627,1.005-8.562,3.793-10.429l5.784,7.174c1.061,1.254,2.064,2.283,3.141,3.495.638.72.706,1,1.418,1.742.641.666,1.109,1.059,1.751,1.725l3,3.325c2.081,2.077,8.972,8.682,9.876,10.034-1.6.373-3.379,1.361-5.118,1.834-7.144,1.94-14.823,1.38-19.35-5.176a24.745,24.745,0,0,1-4.291-13.724Zm58.782-30.971c0-3.236.183-5.793,2.985-8.392,5.69-5.279,16.609-2.565,16.609,7.76,0,5.183-4.593,9.174-9.522,9.445-4.631.254-10.073-3.967-10.073-8.813Zm164.653-32.867,5.336-14.258a297.285,297.285,0,0,0,8.7-31.116l3.342-16.568c2.27,1.52,4.573,2.873,6.737,4.641,4.3,3.514,8.4,7.179,11.266,12.118a20,20,0,0,1,.96,18.952,28.367,28.367,0,0,1-1.642,2.784c-5.774,9.047-18.762,16.768-28.071,20.915-1.244.554-5.366,2.427-6.632,2.532Zm-60.046-52.145a10.179,10.179,0,0,1,9.8-10.113c13.387,0,13.387,19.91,0,19.91a10.186,10.186,0,0,1-9.8-9.8ZM-390.6,242.022c0-8.6,9.4-13.346,16.489-7.64,6.112,4.924,3.167,17.65-6.926,17.267a9.708,9.708,0,0,1-9.563-9.627Zm-77.112-58.466h-19.91c0,2.261-.272,3.55-.327,5.362-.055,1.873.047,3.829.023,5.711-.023,1.923-.338,3.064-.33,5.36l1.572,46.467c.2,3.6.958,7.262.958,10.736a98.121,98.121,0,0,0-20.3,14.778,35.151,35.151,0,0,0-2.7,2.361l-4.541,5.256a53.213,53.213,0,0,0-4.128,5.985c-7.85,13.01-5.064,24.64,3.54,36.091.844,1.123,1.7,2.089,2.527,3.161.9,1.175,1.754,1.816,2.771,2.918l2.844,2.844a94.057,94.057,0,0,0,12.529,10.225,164.85,164.85,0,0,0,37.692,19.508c1.6.579,1.905,1.651,2.629,3.06l4.387,7.321c1.129,1.688.359,2.225-.24,4.091-.912,2.844-1.811,6.043-2.507,8.871-3.36,13.664-7.01,37.439,7.621,46.3,14.853,9,33.617,7.507,49.9,3.322a117.807,117.807,0,0,0,14.835-5.075A157.309,157.309,0,0,0-361,419.531l6.427-3.371c4.044-2.094,11.147-5.91,14.533-8.853l6.908,5.419c4.139,3.109,18.859,12.794,23.431,13.859-.767,1.146-1.993,1.725-3.116,2.573l-6.633,4.744c-6.205,4.607-12.935,8.625-19.388,12.881-1.86,1.226-3.426-.849-5.18-2-1.279-.836-2.209-1.359-3.48-2.208l-17.509-11.883a44.144,44.144,0,0,0-5.011,1.943c-3.536,1.41-11.756,5.226-14.9,5.958.259.973.276.715.992,1.222,11.708,8.291,19.855,13.229,31.936,20.524,2,1.206,10.155,5.9,11.949,6.381v2.212c2.673-.714,11.365-5.965,14.161-7.645,4.68-2.812,9.44-5.438,13.966-8.472,1.452-.973,2.969-1.872,4.425-2.844,6.607-4.414,12.834-9.3,19.219-13.981.956-.7,1.61-.522,2.839-.194,11.675,3.118,29.332,6.556,41.651,1.4a25.834,25.834,0,0,0,11.575-9.282c9.952-15.035,9.279-31.145,2.871-47.568-.446-1.144-.778-2.03-1.266-3.158-2.149-4.972-1.717-2.2,3.482-11.5.649-1.16,1.109-1.862,1.7-3.043,1.841-3.7,1.209-2.547,4.95-4.215l30.53-14.979c5.455-3.271,11.472-6.669,16.051-11.127l4.555-4.61c9.374-11.6,13.45-25.656,7.587-40.234-2.81-6.986-8.015-13.03-13.684-17.6a79.721,79.721,0,0,0-9.1-6.7c-13.818-8.271-28.344-13.975-44.077-18.5-38.257-10.994-79.241-14.671-119.327-14.671l-13.277.312c-2-.012-2.821.32-4.421.32-1.2-2.275-3.991-4.368-6.422-5.587a18.877,18.877,0,0,0-25.053,7.3,18.577,18.577,0,0,0,.2,19.138,18.4,18.4,0,0,0,6.049,6.277,19.127,19.127,0,0,0,21.8-1.159c2.618-2.127,5.395-5.455,6.27-9.215l15.8-.318c2.216-.012,3.155.308,5.041.332,3.558.044,7.229-.129,10.769-.024l10.408.653c6.214.178,14.544.61,20.372,1.434,3.3.467,6.682.648,9.721,1.024,3.348.417,6.768.783,9.835,1.226l27.426,4.808a219.951,219.951,0,0,1,37.895,11.091,35.126,35.126,0,0,0,4.108,1.58c-.757,1.578-1.581,8.72-2.08,11.193-.791,3.921-1.523,7.339-2.471,11.119-.927,3.7-1.734,7.018-2.754,10.518-2.014,6.9-4.288,13.325-6.718,20.144-6.554,18.4-17.4,36.433-29,51.9-1.943,2.593-3.9,5.12-6.029,7.56-2.064,2.367-3.94,4.9-6.166,7.106-4.486,4.448-8.595,9.671-13.451,13.729a19.1,19.1,0,0,0-1.73,1.43c-1.3,1.287-4.77,3.956-5.129,5.3,3.5.817,6.693,2.612,10.074,3.833,2.014.728,8.806,3.12,11.1,3.12.47,0,10.771-11.364,12.4-13.2.57-.643.668-.9,1.27-1.575l5.161-6.217c.974-1.241,1.4-2.19,2.659-3.03.121,1.449.945,3.479,1.227,5.093,1.219,6.966.967,14.774-4.6,19.661-10.418,9.148-33.056,3.054-43.9-1.5a98.871,98.871,0,0,1-20.764-11.471c-1.116-.843-2.041-1.364-3.164-2.21-3.085-2.324-5.89-4.914-9.073-7.045,1.057-1.443,3.633-2.844,4.985-4.181l13.589-14.853c6.364-7.78,11.762-16.221,17.324-24.708,4.435-6.766,8.219-13.886,12.4-20.789.612-1.013,1.156-1.944,1.741-3,1.9-3.426,10.572-18.884,11.277-21.906a17.717,17.717,0,0,0,12.406-5.292,18.964,18.964,0,0,0,.158-26.865c-12.062-12.062-32.157-2.646-32.157,12.247,0,10.751,4.231,12.209,6.637,15.8-4.765,9-9,18.394-14.28,27.121-1.8,2.968-3.419,5.72-5.253,8.653-3.993,6.385-11.077,16.022-16.411,21.514l-3.328,3.624c-2.688,2.651-6.537,7.512-9.8,10.744l-8.367,9.017a168.212,168.212,0,0,1-15.2,12.606c-4.03,2.96-8.37,5.592-12.671,8.186a154.385,154.385,0,0,1-18.576,9.235c-1.712.739-3.2,1.334-5.038,1.957-2.04.693-2.985-.945-5.721-3.383-.771-.687-1.1-.8-1.893-1.584l-5.527-4.9c-1.99-1.751-12.156-11.78-13.876-13.934l-3.247-3.707c-.635-.819-1.044-1.061-1.669-1.807-1.143-1.359-2-2.464-3.173-3.78-6.961-7.807-13.23-17.356-18.6-26.279l-6.132-11.251c-.448-.862-.869-1.35-1.268-2.208s-.583-1.5-1.049-2.427c-1.619-3.234-2.944-6.091-4.412-9.494-2.844-6.591-5.167-13.553-7.453-20.357-1.2-3.571-2.1-7.133-3.165-10.741-2.153-7.255-3.38-15.358-5.095-22.716-4.765,2.286-8.208,2.715-14.538,6.953.686,1.43,2.628,12.095,3.288,14.727,1.277,5.1,2.41,9.564,3.869,14.461,1.873,6.289,6.459,20.825,9.594,26.75-1.3-.108-5.2-1.957-6.321-2.528-1.96-1-4.06-1.825-6.008-2.84l-11.374-6.641c-1.832-1.226-3.371-2.278-5.194-3.654a41.042,41.042,0,0,1-4.683-4.166c-10.3-10.176-4.914-23.476,3.018-32.854l3.879-4.02A81.479,81.479,0,0,1-474.88,271.2a209.808,209.808,0,0,1,22.453-8.518l20.671-6.19a22.076,22.076,0,0,0,3.227-.881c0,5.556,1.021,11.1,1.8,16.528a158.831,158.831,0,0,0,3,15.646c2.524,10.155,5.168,19.03,9.421,27.555a185.685,185.685,0,0,0,11.881,20.352c.747,1.113,1.132,1.734,1.841,2.9a31.06,31.06,0,0,0,1.812,2.613c3.312,4.46,6.223,9.335,9.7,13.682l4.152,5.329c-.28,1.2-.5,1.1-.991,2.169-.309.67-.616,1.546-.87,2.289-3.9,11.439,5.1,24.617,17.032,24.617a19.154,19.154,0,0,0,14.46-5.767,18.387,18.387,0,0,0,5.45-12.879c0-9.686-7.944-18.962-17.7-18.962l-5.688.316-6.771-9.031a275.4,275.4,0,0,1-17.345-26.9l-4.222-7.788c-4.973-9.948-8.43-19.14-10.4-30.051a84.374,84.374,0,0,1-.71-24.147c.618-5.159,3.271-10.885-.753-15.159-5.148-5.467-15.772-1.162-21.545.764-7.981,2.665-15.812,5.045-23.628,7.974-3.846,1.443-8.236,2.365-11.963,4.155-.088-3.886-1.219-11.076-1.254-15.812l-.313-6.639c-.019-1.63-.255-1.74-.331-3.146-.5-9.266,0-17.827,0-26.864a17.529,17.529,0,0,0,2.212.316c17.452,0,31.743-.275,48.536-3.293a160.187,160.187,0,0,0,16.047-3.547l14.939-4.655c2.551-.844,4.846-1.774,7.116-2.681,4.713-1.882,12.281-5.034,16.644-7.69,1.146-.7,2.122-1.063,3.323-1.734,4.211-2.356,8.358-4.785,12.223-7.37.95-.635,1.893-1.265,2.846-1.895,2.09-1.385,7.289-4.627,8.532-6.322,1.911,1.278,3.621,2.842,5.623,4.174,2.042,1.36,3.738,2.65,5.815,3.982s3.888,2.466,6.044,3.753l26.139,13.049c11.17,4.943,26.057,8.609,38.1,10.886,16.276,3.077,31.694,3.343,48.8,3.343a17.5,17.5,0,0,0,2.213-.316l-.306,30.982c-.089,2.988-.643,6.635-.643,9.787,1.285.68,2.418,1.479,3.733,2.271l7.465,4.544c1.1.661,2.69,1.927,3.971,2.033,0-4.269.6-9.274.931-13.29.133-1.6-.116-3.4.063-4.993a82.965,82.965,0,0,0,.262-9.219c-.008-2.022.313-2.578.337-4.4.085-6.975-.337-13.61-.329-20.555,0-2.992-.352-4.721-.315-7.587.068-5.158-.162-3.158-4.426-3.158h-12.325c-21.337,0-47.088-3.576-66.88-10.231-2.9-.976-5.457-1.813-8.3-2.763-5.14-1.717-10.656-4.124-15.518-6.288l-10.964-5.47c-1.367-.765-2.352-1.167-3.711-1.978-1.251-.747-2.195-1.183-3.443-1.929l-10.329-6.421c-1.544-1.03-10.145-6.554-11.3-7.982-.641-.8-.4-1.158-.4-2.447-1.113.3-11.235,7.7-12.578,8.6-4.418,2.945-8.757,5.475-13.352,8.139-1.15.668-2.349,1.242-3.476,1.9-11.39,6.62-29.8,13.148-42.151,16.63a171.314,171.314,0,0,1-17.478,4.014C-440.5,181.551-453.849,183.556-467.715,183.556Z" transform="translate(522.02 -140.26)" fill="#09096a" fill-rule="evenodd"/>
</svg>
